{"asset":{"version":"2.0","generator":"Blockbench 3.9.2 glTF exporter"},"scenes":[{"nodes":[1,3,5,7,9,11,12,13,14,15,16,17],"name":"blockbench_export"}],"scene":0,"nodes":[{"translation":[0.046875,-0.0625,0],"name":"af6d0056-b1f5-4daf-bf8c-ddf49ff44e9f","mesh":0},{"translation":[-0.046875,0.0625,0],"name":"right_leg","children":[0]},{"translation":[0.03125,-0.09375,0],"name":"bfeef659-2baa-eabd-1bc7-9a1ba840798b","mesh":1},{"translation":[-0.140625,0.21875,0],"name":"right_arm","children":[2]},{"translation":[0,-0.0625,0],"name":"fdb6684f-44f7-b88d-645d-d544659f9d8c","mesh":2},{"translation":[0,0.3125,0],"name":"head","children":[4]},{"translation":[-0.03125,-0.09375,0],"name":"2f0faf44-264b-2912-4543-ac8ebb220eb4","mesh":3},{"translation":[0.140625,0.21875,0],"name":"left_arm","children":[6]},{"translation":[-0.046875,-0.0625,0],"name":"83ff367e-ab1c-25c7-9d38-0e5eab1075a3","mesh":4},{"translation":[0.046875,0.0625,0],"name":"left_leg","children":[8]},{"name":"bf8da50d-d87d-9c08-f2ea-006a45459489","mesh":5},{"name":"torso","children":[10]},{"translation":[-0.046875,0.0625,0],"name":"right_leg"},{"translation":[-0.140625,0.21875,0],"name":"right_arm"},{"translation":[0,0.3125,0],"name":"head"},{"translation":[0.140625,0.21875,0],"name":"left_arm"},{"translation":[0.046875,0.0625,0],"name":"left_leg"},{"name":"torso"}],"bufferViews":[{"buffer":0,"byteOffset":0,"byteLength":432,"target":34962,"byteStride":12},{"buffer":0,"byteOffset":432,"byteLength":432,"target":34962,"byteStride":12},{"buffer":0,"byteOffset":864,"byteLength":288,"target":34962,"byteStride":8},{"buffer":0,"byteOffset":1152,"byteLength":432,"target":34962,"byteStride":12},{"buffer":0,"byteOffset":1584,"byteLength":432,"target":34962,"byteStride":12},{"buffer":0,"byteOffset":2016,"byteLength":288,"target":34962,"byteStride":8},{"buffer":0,"byteOffset":2304,"byteLength":432,"target":34962,"byteStride":12},{"buffer":0,"byteOffset":2736,"byteLength":432,"target":34962,"byteStride":12},{"buffer":0,"byteOffset":3168,"byteLength":288,"target":34962,"byteStride":8},{"buffer":0,"byteOffset":3456,"byteLength":432,"target":34962,"byteStride":12},{"buffer":0,"byteOffset":3888,"byteLength":432,"target":34962,"byteStride":12},{"buffer":0,"byteOffset":4320,"byteLength":288,"target":34962,"byteStride":8},{"buffer":0,"byteOffset":4608,"byteLength":432,"target":34962,"byteStride":12},{"buffer":0,"byteOffset":5040,"byteLength":432,"target":34962,"byteStride":12},{"buffer":0,"byteOffset":5472,"byteLength":288,"target":34962,"byteStride":8},{"buffer":0,"byteOffset":5760,"byteLength":432,"target":34962,"byteStride":12},{"buffer":0,"byteOffset":6192,"byteLength":432,"target":34962,"byteStride":12},{"buffer":0,"byteOffset":6624,"byteLength":288,"target":34962,"byteStride":8}],"buffers":[{"byteLength":6912,"uri":"data:application/octet-stream;base64,"}],"accessors":[{"bufferView":0,"componentType":5126,"count":36,"max":[-0.015625,0.0625,0.03125],"min":[-0.078125,0,-0.03125],"type":"VEC3"},{"bufferView":1,"componentType":5126,"count":36,"max":[1,1,1],"min":[-1,-1,-1],"type":"VEC3"},{"bufferView":2,"componentType":5126,"count":36,"max":[0.2490234375,0.2490234375],"min":[0.0009765625,0.1259765625],"type":"VEC2"},{"bufferView":3,"componentType":5126,"count":36,"max":[-0.015625,0.125,0.03125],"min":[-0.078125,0,-0.03125],"type":"VEC3"},{"bufferView":4,"componentType":5126,"count":36,"max":[1,1,1],"min":[-1,-1,-1],"type":"VEC3"},{"bufferView":5,"componentType":5126,"count":36,"max":[0.9990234375,0.1865234375],"min":[0.7509765625,0.0009765625],"type":"VEC2"},{"bufferView":6,"componentType":5126,"count":36,"max":[0.0625,0.140625,0.0625],"min":[-0.0625,0.078125,-0.0625],"type":"VEC3"},{"bufferView":7,"componentType":5126,"count":36,"max":[1,1,1],"min":[-1,-1,-1],"type":"VEC3"},{"bufferView":8,"componentType":5126,"count":36,"max":[0.4990234375,0.1865234375],"min":[0.0009765625,0.0009765625],"type":"VEC2"},{"bufferView":9,"componentType":5126,"count":36,"max":[0.078125,0.125,0.03125],"min":[0.015625,0,-0.03125],"type":"VEC3"},{"bufferView":10,"componentType":5126,"count":36,"max":[1,1,1],"min":[-1,-1,-1],"type":"VEC3"},{"bufferView":11,"componentType":5126,"count":36,"max":[0.9990234375,0.1865234375],"min":[0.7509765625,0.0009765625],"type":"VEC2"},{"bufferView":12,"componentType":5126,"count":36,"max":[0.078125,0.0625,0.03125],"min":[0.015625,0,-0.03125],"type":"VEC3"},{"bufferView":13,"componentType":5126,"count":36,"max":[1,1,1],"min":[-1,-1,-1],"type":"VEC3"},{"bufferView":14,"componentType":5126,"count":36,"max":[0.2490234375,0.2490234375],"min":[0.0009765625,0.1259765625],"type":"VEC2"},{"bufferView":15,"componentType":5126,"count":36,"max":[0.125,0.3125,0.125],"min":[-0.125,0.0625,-0.125],"type":"VEC3"},{"bufferView":16,"componentType":5126,"count":36,"max":[1,1,1],"min":[-1,-1,-1],"type":"VEC3"},{"bufferView":17,"componentType":5126,"count":36,"max":[0.9990234375,0.9990234375],"min":[0.0009765625,0.5009765625],"type":"VEC2"}],"materials":[{"pbrMetallicRoughness":{"metallicFactor":0,"roughnessFactor":1,"baseColorTexture":{"index":0}},"alphaMode":"MASK","alphaCutoff":0.05,"doubleSided":true}],"textures":[{"sampler":0,"source":0,"name":"Test.png"}],"samplers":[{"magFilter":9728,"minFilter":9728,"wrapS":33071,"wrapT":33071}],"images":[{"mimeType":"image/png","uri":"data:image/png;base64,"}],"meshes":[{"primitives":[{"mode":4,"attributes":{"POSITION":0,"NORMAL":1,"TEXCOORD_0":2},"material":0}]},{"primitives":[{"mode":4,"attributes":{"POSITION":3,"NORMAL":4,"TEXCOORD_0":5},"material":0}]},{"primitives":[{"mode":4,"attributes":{"POSITION":6,"NORMAL":7,"TEXCOORD_0":8},"material":0}]},{"primitives":[{"mode":4,"attributes":{"POSITION":9,"NORMAL":10,"TEXCOORD_0":11},"material":0}]},{"primitives":[{"mode":4,"attributes":{"POSITION":12,"NORMAL":13,"TEXCOORD_0":14},"material":0}]},{"primitives":[{"mode":4,"attributes":{"POSITION":15,"NORMAL":16,"TEXCOORD_0":17},"material":0}]}]}